# xmcd CD database file
#
# Track frame offsets:
#	150
#	21942
#	41917
#
# Disc length: 846 seconds
#
# Revision: 4
# Processed by: cddbd v1.5PL3 Copyright (c) Steve Scherf et al.
# Submitted via: CDex 1.51
#
DISCID=21034c03
DTITLE=erico - Everything+Ash
DYEAR=2004
DGENRE=JPop
TTITLE0=Everything+Ash
TTITLE1=VIVIA
TTITLE2=Everything+Ash (instrumental)
EXTD=YEAR: 2004
EXTT0=
EXTT1=
EXTT2=
PLAYORDER=
